<svg xmlns="http://www.w3.org/2000/svg" viewBox="0 0 22 22"><defs><style>.cls-1{fill:#13536b;}</style></defs><title>Account</title><g id="Layer_2" data-name="Layer 2"><g id="Desktop_I_-_News" data-name="Desktop I - News"><g id="Avatar"><path class="cls-1" d="M11,10.53A3.5,3.5,0,0,0,7.51,14v.57a.61.61,0,0,0,.61.62h5.76a.61.61,0,0,0,.61-.62V14A3.5,3.5,0,0,0,11,10.53Z"/><path class="cls-1" d="M11,9.46A1.77,1.77,0,1,0,9.23,7.69,1.78,1.78,0,0,0,11,9.46Z"/><path class="cls-1" d="M11,0h0A11,11,0,0,0,0,11H0A11,11,0,0,0,11,22h0A11,11,0,0,0,22,11h0A11,11,0,0,0,11,0Zm4.57,14.6a1.68,1.68,0,0,1-1.69,1.69H8.12A1.69,1.69,0,0,1,6.43,14.6V14A4.57,4.57,0,0,1,9.15,9.85a2.84,2.84,0,1,1,3.7,0A4.57,4.57,0,0,1,15.57,14Z"/></g></g></g></svg>