<svg xmlns="http://www.w3.org/2000/svg" viewBox="0 0 142 142"><defs><style>.cls-1{fill:#f2f2f2;}.cls-2{fill:#13536b;}</style></defs><title>App</title><g id="Layer_2" data-name="Layer 2"><g id="Mobile_IV_-_App" data-name="Mobile IV - App"><g id="Content"><g id="App_Icon" data-name="App Icon"><rect class="cls-1" width="142" height="142" rx="10.02"/><g id="Logo"><g id="Strong_Color" data-name="Strong Color"><path class="cls-2" d="M59.52,58.86l3,1.39v45L34.4,91.64v-9.5L37,79.68h7.21l.21-.74,3.3-11.75H59l.05-1,.43-7.37m-.93-1.55-.51,8.86H46.93l-3.5,12.49H36.58l-3.19,3V92.27L63.5,106.85V59.61l-4.91-2.3Z"/><path class="cls-2" d="M107.73,46.83V91.71L79.67,105.18V60.3l28.06-13.47m1-1.61L78.66,59.66v47.13l30.08-14.44V45.22Z"/></g><g id="Light_Color" data-name="Light Color"><polygon class="cls-2" points="103.57 88.54 73.32 102.98 73.32 55.84 103.57 41.4 103.57 88.54"/><polygon class="cls-2" points="38.17 75.43 45.17 62.97 53.34 62.97 54.94 52.24 59.1 51.39 68.39 55.92 68.39 103 38.12 88.59 38.17 75.43"/><polygon class="cls-2" points="28.68 33.65 34.27 44.87 43.88 46.48 28.68 33.65"/><polygon class="cls-2" points="28.52 46.77 37.45 52.02 39.04 58.85 36.25 58.58 28.52 46.77"/><polygon class="cls-2" points="44.15 40.87 50.32 43.32 58.33 48.5 52.04 48.54 44.15 40.87"/><polygon class="cls-2" points="41.93 49.12 42.54 58.21 50.34 58.74 51.13 52.2 41.93 49.12"/><polygon class="cls-2" points="31.31 61.66 40 63.19 36.12 70.62 31.31 61.66"/><polygon class="cls-2" points="35.93 76.46 31.48 73.38 31.55 80.1 35.93 76.46"/></g></g></g></g></g></g></svg>