<svg xmlns="http://www.w3.org/2000/svg" viewBox="0 0 353.12 55.34"><defs><style>.cls-1{fill:#fff;}</style></defs><title>Full Logo</title><g id="Layer_2" data-name="Layer 2"><g id="Desktop_V_-_Footer" data-name="Desktop V - Footer"><g id="Logo"><path class="cls-1" d="M81.51,20.15q-4.45,0-4.45,3.12a2.54,2.54,0,0,0,1,2.3,20.64,20.64,0,0,0,4.65,1.68,12.34,12.34,0,0,1,5.06,2.38A5.77,5.77,0,0,1,89.29,34c0,2.52-.71,4.41-2.15,5.66a8.65,8.65,0,0,1-5.87,1.87,34.51,34.51,0,0,1-6.59-.7l-1.27-.24.39-3.12A59.16,59.16,0,0,0,81,38.1q4.35,0,4.35-3.86a2.58,2.58,0,0,0-1-2.22A14.94,14.94,0,0,0,80,30.44a11.92,11.92,0,0,1-5.12-2.37q-1.68-1.5-1.68-4.77a5.86,5.86,0,0,1,2.12-4.92,9.27,9.27,0,0,1,5.87-1.67,37.58,37.58,0,0,1,6.38.64l1.23.21-.32,3.15Q83.55,20.16,81.51,20.15Z"/><path class="cls-1" d="M107.77,41.15V30.77H97.39V41.15H93.5v-24h3.89V27.37h10.38V17.14h3.92v24Z"/><path class="cls-1" d="M134.45,20.61V17.14H152v3.47h-6.76V41.15h-3.93V20.61Z"/><path class="cls-1" d="M152.88,20.61V17.14h17.53v3.47h-6.76V41.15h-3.93V20.61Z"/><path class="cls-1" d="M173.64,41.15v-24h15.14v3.4H177.53v6.8h9.15V30.7h-9.15v7h11.25v3.44Z"/><path class="cls-1" d="M196.91,32.59v8.56H193v-24h9.12q8.13,0,8.13,7.64,0,5.12-3.93,6.94l4,9.43H206l-3.47-8.56Zm9.36-7.78q0-4.3-4.13-4.31h-5.23v8.73h5.3A3.72,3.72,0,0,0,205.29,28,4.92,4.92,0,0,0,206.27,24.81Z"/><path class="cls-1" d="M214.69,41.15v-24h15.14v3.4H218.58v6.8h9.15V30.7h-9.15v7h11.25v3.44Z"/><path class="cls-1" d="M242.38,41.15h-8.31v-24h8.31c3.69,0,6.22.93,7.57,2.8s2,4.8,2,8.8a28,28,0,0,1-.41,5.17,11.85,11.85,0,0,1-1.42,3.84C248.83,40,246.24,41.15,242.38,41.15ZM248,28.74q0-4.35-1.08-6.28c-.73-1.28-2.22-1.92-4.49-1.92H238V37.71h4.42c2.31,0,3.86-.85,4.63-2.56a10.38,10.38,0,0,0,.75-2.77A28.47,28.47,0,0,0,248,28.74Z"/><path class="cls-1" d="M261.94,20.61V17.14h17.53v3.47H272.7V41.15h-3.92V20.61Z"/><path class="cls-1" d="M315.72,41.15H302.25v-24h3.9V37.68h9.57Z"/><path class="cls-1" d="M318.91,41.15v-24h15.14v3.4H322.8v6.8H332V30.7H322.8v7h11.25v3.44Z"/><path class="cls-1" d="M345.34,20.15q-4.45,0-4.45,3.12a2.54,2.54,0,0,0,1.05,2.3,20.7,20.7,0,0,0,4.64,1.68,12.32,12.32,0,0,1,5.07,2.38A5.77,5.77,0,0,1,353.12,34q0,3.78-2.16,5.66a8.62,8.62,0,0,1-5.87,1.87,34.67,34.67,0,0,1-6.59-.7l-1.26-.24.39-3.12a59.16,59.16,0,0,0,7.22.63q4.33,0,4.34-3.86a2.56,2.56,0,0,0-1-2.22,14.72,14.72,0,0,0-4.41-1.58,11.86,11.86,0,0,1-5.12-2.37c-1.12-1-1.69-2.59-1.69-4.77a5.86,5.86,0,0,1,2.13-4.92A9.27,9.27,0,0,1,345,16.71a37.68,37.68,0,0,1,6.38.64l1.22.21-.31,3.15C349,20.34,346.69,20.15,345.34,20.15Z"/><path class="cls-1" d="M284.67,28l4.38-10.88,6,14.2Zm2.08,11.06,6.31,2h5.73l-3-7.43L283.92,30l-4.48,11.16h6.45Z"/><path class="cls-1" d="M120.25,28l4.37-10.87,6,14.19Zm2.08,11.06,6.3,2.05h5.74l-3-7.43L119.49,30,115,41.1h6.45Z"/><g id="Icon"><g id="Strong_Color" data-name="Strong Color"><path class="cls-1" d="M22.65,18.07l3.5,1.63V55.14L3.51,44.24V36.38l2.34-2.23H11.1l0-.09,2.64-9.35h8.49v-.12l.38-6.52m-.11-.18-.39,6.69H13.68L11,34H5.81l-2.43,2.3v8l22.89,11V19.62l-3.73-1.73Z"/><polygon class="cls-1" points="5.32 32.73 1.93 30.39 1.99 35.48 5.32 32.73"/><path class="cls-1" d="M60.53,8.93V44.3L37.91,55.1V19.74L60.53,8.93m.12-.19L37.79,19.66V55.3L60.65,44.38V8.74Z"/></g><g id="Light_Color" data-name="Light Color"><polygon class="cls-1" points="56.74 41.49 33.87 52.41 33.87 16.77 56.74 5.86 56.74 41.49"/><polygon class="cls-1" points="7.3 31.58 12.59 22.16 18.76 22.16 19.97 14.05 23.12 13.41 30.14 16.84 30.14 52.43 7.26 41.53 7.3 31.58"/><polygon class="cls-1" points="0.12 0 4.35 8.48 11.61 9.7 0.12 0"/><polygon class="cls-1" points="0 9.92 6.75 13.88 7.95 19.05 5.84 18.84 0 9.92"/><polygon class="cls-1" points="11.81 5.45 16.48 7.31 22.54 11.22 17.78 11.25 11.81 5.45"/><polygon class="cls-1" points="10.14 11.69 10.6 18.57 16.5 18.96 17.1 14.02 10.14 11.69"/><polygon class="cls-1" points="2.11 21.18 8.68 22.33 5.75 27.95 2.11 21.18"/></g></g></g></g></g></svg>