<svg xmlns="http://www.w3.org/2000/svg" viewBox="0 0 21.76 21.78"><defs><style>.cls-1{fill:#f2f2f2;}</style></defs><title>Instagram</title><g id="Layer_2" data-name="Layer 2"><g id="Desktop_V_-_Footer" data-name="Desktop V - Footer"><path id="Instagram_Icon" data-name="Instagram Icon" class="cls-1" d="M17.55,0H4.2A4.2,4.2,0,0,0,0,4.2V17.56a4.2,4.2,0,0,0,4.18,4.22H17.55a4.21,4.21,0,0,0,4.21-4.22h0V4.22A4.21,4.21,0,0,0,17.55,0Zm1.21,2.52h.48V6.2H15.56V2.52Zm-11,6.14a3.81,3.81,0,0,1,5.32-.88,3.91,3.91,0,0,1,.89.88,3.71,3.71,0,0,1,.72,2.23,3.83,3.83,0,0,1-7.66,0A3.9,3.9,0,0,1,7.77,8.66Zm11.88,8.9a2.1,2.1,0,0,1-2.1,2.09H4.2a2.09,2.09,0,0,1-2.08-2.09h0V8.66H5.35a5.94,5.94,0,1,0,11.49,2.23,5.67,5.67,0,0,0-.46-2.23h3.23Z"/></g></g></svg>