<svg xmlns="http://www.w3.org/2000/svg" viewBox="0 0 16 17.83"><defs><style>.cls-1{fill:#f2f2f2;opacity:0.8;}</style></defs><title>Library</title><g id="Layer_2" data-name="Layer 2"><g id="Special_State" data-name="Special State"><g id="Mobile"><g id="Menu_Bubble" data-name="Menu Bubble"><path id="Library_Icon" data-name="Library Icon" class="cls-1" d="M15.4,14.73h.13a.44.44,0,0,0,.47-.4V.41A.44.44,0,0,0,15.53,0H2.25A2.12,2.12,0,0,0,0,2S0,2,0,2C0,3,0,14.6,0,15.81c0,0,0,0,0,.07a2.11,2.11,0,0,0,2.11,1.95H15.5a.38.38,0,0,0,.41-.36v-.08A.39.39,0,0,0,15.5,17h-.1a1.2,1.2,0,0,1-.61-1.09h0a.08.08,0,0,0,0,0V15.8A1.17,1.17,0,0,1,15.4,14.73Zm-.83,1.07h0v.13h0A1.52,1.52,0,0,0,15,17H2.25a1.24,1.24,0,0,1-1.31-1.1v-.11a1.25,1.25,0,0,1,1.31-1.08H15A1.54,1.54,0,0,0,14.57,15.8Z"/></g></g></g></g></svg>