<svg xmlns="http://www.w3.org/2000/svg" viewBox="0 0 39.55 36.08"><defs><style>.cls-1{fill:#13536b;}</style></defs><title>Logo</title><g id="Layer_2" data-name="Layer 2"><g id="Desktop_I_-_News" data-name="Desktop I - News"><g id="Logo"><g id="Strong_Color" data-name="Strong Color"><path class="cls-1" d="M15.28,12.43l1.46.68V35.28L2.9,28.58V23.9l1.27-1.21H7.73l.1-.37,1.62-5.79H15l0-.47.21-3.63m-.46-.77L14.57,16H9.08L7.35,22.19H4L2.4,23.69V28.9l14.84,7.18V12.79l-2.42-1.13Z"/><path class="cls-1" d="M39.05,6.49V28.62L25.21,35.26V13.13L39.05,6.49m.5-.79L24.71,12.82V36.05l14.84-7.11V5.7Z"/></g><g id="Light_Color" data-name="Light Color"><polygon class="cls-1" points="36.99 27.06 22.09 34.17 22.09 10.94 36.99 3.82 36.99 27.06"/><polygon class="cls-1" points="4.76 20.59 8.21 14.45 12.23 14.45 13.02 9.16 15.07 8.74 19.65 10.98 19.65 34.19 4.73 27.08 4.76 20.59"/><polygon class="cls-1" points="0.08 0 2.84 5.53 7.57 6.32 0.08 0"/><polygon class="cls-1" points="0 6.47 4.4 9.05 5.18 12.42 3.81 12.29 0 6.47"/><polygon class="cls-1" points="7.7 3.56 10.74 4.77 14.69 7.32 11.59 7.34 7.7 3.56"/><polygon class="cls-1" points="6.61 7.62 6.91 12.11 10.76 12.37 11.15 9.14 6.61 7.62"/><polygon class="cls-1" points="1.38 13.81 5.66 14.56 3.75 18.22 1.38 13.81"/><polygon class="cls-1" points="3.65 21.1 1.46 19.58 1.5 22.9 3.65 21.1"/></g></g></g></g></svg>