<svg xmlns="http://www.w3.org/2000/svg" viewBox="0 0 36.58 29.71"><defs><style>.cls-1{opacity:0.5;}.cls-2{fill:#00586d;}</style></defs><title>News</title><g id="Layer_2" data-name="Layer 2"><g id="Desktop_I_-_News" data-name="Desktop I - News"><g id="Content"><g id="News_Icon" data-name="News Icon" class="cls-1"><path class="cls-2" d="M0,0H32V4.55h4.58V25a5.56,5.56,0,0,1-.72,3,3.32,3.32,0,0,1-2.93,1.64H4.78a5.22,5.22,0,0,1-2.52-.52,4,4,0,0,1-2-2.7A8.37,8.37,0,0,1,0,24.63Q0,12.51,0,.39ZM2.29,2.29V24.85c0,.13,0,.27,0,.4a2.19,2.19,0,0,0,1.49,2.06,3.67,3.67,0,0,0,1,.11H30.5a4.64,4.64,0,0,1-.78-3.32V2.29Z"/><path class="cls-2" d="M14.84,22.85H4.6V11.44H14.84Z"/><path class="cls-2" d="M4.58,9.11V6.87H27.42V9.11Z"/><path class="cls-2" d="M17.17,11.43H27.41v2.26H17.17Z"/><path class="cls-2" d="M17.16,18.26V16H27.42v2.24Z"/><path class="cls-2" d="M17.16,22.83V20.59h8v2.24Z"/></g></g></g></g></svg>