<svg xmlns="http://www.w3.org/2000/svg" viewBox="0 0 37.21 30.21"><defs><style>.cls-1{fill:#00586d;opacity:0.5;}</style></defs><title>Ranking</title><g id="Layer_2" data-name="Layer 2"><g id="Desktop_II_-_Ranking" data-name="Desktop II - Ranking"><g id="Content"><path id="Ranking_Icon" data-name="Ranking Icon" class="cls-1" d="M7,30.21H2a2,2,0,0,1-2-2v-10a2,2,0,0,1,2-2H7a2,2,0,0,1,2,2v10A2,2,0,0,1,7,30.21Zm30.23-2V10a2,2,0,0,0-2-2h-5a2,2,0,0,0-2,2V28.22a2,2,0,0,0,2,2h5A2,2,0,0,0,37.21,28.22Zm-14.13,0V2a2,2,0,0,0-2-2h-5a2,2,0,0,0-2,2V28.22a2,2,0,0,0,2,2h5A2,2,0,0,0,23.08,28.22Z"/></g></g></g></svg>