<svg xmlns="http://www.w3.org/2000/svg" viewBox="0 0 20.17 20.17"><defs><style>.cls-1{fill:#13536b;}</style></defs><title>Search</title><g id="Layer_2" data-name="Layer 2"><g id="Desktop_I_-_News" data-name="Desktop I - News"><g id="Search_Icon" data-name="Search Icon"><path id="Frame" class="cls-1" d="M9.78,19.55a9.78,9.78,0,1,1,9.77-9.77A9.79,9.79,0,0,1,9.78,19.55Zm0-17.11a7.34,7.34,0,1,0,7.33,7.34A7.34,7.34,0,0,0,9.78,2.44Z"/><rect id="Leg" class="cls-1" x="14.68" y="14.29" width="4.89" height="5.68" rx="1.67" transform="translate(-7.09 17.13) rotate(-45)"/><path id="Reflection" class="cls-1" d="M14.64,9.78h0a.7.7,0,0,0,.69-.8,5.62,5.62,0,0,0-4.75-4.76.7.7,0,0,0-.8.7h0a.7.7,0,0,0,.6.69,4.21,4.21,0,0,1,3.56,3.56A.71.71,0,0,0,14.64,9.78Z"/></g></g></g></svg>