<svg xmlns="http://www.w3.org/2000/svg" viewBox="0 0 201.5 256"><defs><style>.cls-1{fill:#13536b;}.cls-2{fill:#f2f2f2;}</style></defs><title>TnM</title><g id="Layer_2" data-name="Layer 2"><g id="Desktop_IV_-_App" data-name="Desktop IV - App"><g id="Mobile_Tablet" data-name="Mobile Tablet"><g id="Tablet"><rect class="cls-1" x="-36.43" y="36.43" width="230.86" height="158" rx="15.9" transform="translate(194.43 36.43) rotate(90)"/><rect class="cls-2" x="-26.34" y="43.24" width="210.67" height="140" rx="9.17" transform="translate(192.24 34.24) rotate(90)"/><ellipse class="cls-2" cx="78.5" cy="224.72" rx="3" ry="2.63"/><g id="Logo"><g id="Strong_Color" data-name="Strong Color"><path class="cls-1" d="M70.94,102.31l2,.92V133l-18.58-9v-6.28L56,116.08H60.8l.14-.49,2.18-7.77h7.5l0-.64.28-4.87m-.62-1L70,107.14H62.61l-2.32,8.27H55.76l-2.11,2v7l19.92,9.64V102.8l-3.25-1.52Z"/><path class="cls-1" d="M102.83,94.35V124L84.27,133V103.26l18.56-8.91m.67-1.07-19.9,9.56V134l19.9-9.56V93.28Z"/></g><g id="Light_Color" data-name="Light Color"><polygon class="cls-1" points="100.08 121.94 80.07 131.49 80.07 100.31 100.08 90.76 100.08 121.94"/><polygon class="cls-1" points="56.82 113.27 61.44 105.03 66.85 105.03 67.91 97.93 70.66 97.37 76.81 100.36 76.81 131.51 56.78 121.97 56.82 113.27"/><polygon class="cls-1" points="50.54 85.63 54.24 93.05 60.59 94.12 50.54 85.63"/><polygon class="cls-1" points="50.43 94.31 56.34 97.78 57.39 102.3 55.54 102.12 50.43 94.31"/><polygon class="cls-1" points="60.77 90.4 64.85 92.03 70.15 95.45 65.99 95.48 60.77 90.4"/><polygon class="cls-1" points="59.3 95.86 59.7 101.88 64.87 102.23 65.39 97.9 59.3 95.86"/><polygon class="cls-1" points="52.28 104.16 58.03 105.17 55.46 110.09 52.28 104.16"/><polygon class="cls-1" points="55.33 113.95 52.39 111.91 52.44 116.36 55.33 113.95"/></g></g></g><g id="Mobile"><rect class="cls-1" x="114.5" y="94" width="87" height="162" rx="9.24"/><rect class="cls-2" x="119.5" y="99" width="77" height="147" rx="5.83"/><circle class="cls-2" cx="158.5" cy="251" r="2"/><g id="Logo-2" data-name="Logo"><g id="Strong_Color-2" data-name="Strong Color"><path class="cls-1" d="M153.21,167.15l1.22.57v18.54l-11.57-5.6v-3.92l1.06-1h3l.09-.31,1.36-4.84H153l0-.39.18-3m-.38-.64-.21,3.65H148l-1.44,5.15h-2.83l-1.31,1.25v4.36l12.41,6V167.46l-2-1Z"/><path class="cls-1" d="M173.08,162.19v18.5l-11.56,5.55v-18.5l11.56-5.55m.42-.67-12.4,6v19.43l12.4-6V161.52Z"/></g><g id="Light_Color-2" data-name="Light Color"><polygon class="cls-1" points="171.37 179.38 158.9 185.33 158.9 165.9 171.37 159.95 171.37 179.38"/><polygon class="cls-1" points="144.41 173.98 147.29 168.84 150.66 168.84 151.32 164.42 153.03 164.07 156.87 165.94 156.87 185.34 144.39 179.4 144.41 173.98"/><polygon class="cls-1" points="140.5 156.76 142.8 161.38 146.76 162.05 140.5 156.76"/><polygon class="cls-1" points="140.43 162.16 144.11 164.33 144.77 167.14 143.62 167.03 140.43 162.16"/><polygon class="cls-1" points="146.87 159.73 149.42 160.74 152.72 162.88 150.13 162.89 146.87 159.73"/><polygon class="cls-1" points="145.96 163.13 146.21 166.88 149.43 167.1 149.75 164.4 145.96 163.13"/><polygon class="cls-1" points="141.58 168.3 145.16 168.93 143.56 172 141.58 168.3"/><polygon class="cls-1" points="143.49 174.4 141.65 173.13 141.68 175.91 143.49 174.4"/></g></g></g></g></g></g></svg>