<svg xmlns="http://www.w3.org/2000/svg" viewBox="0 0 21.81 17.71"><defs><style>.cls-1{fill:#f2f2f2;}</style></defs><title>Twitter</title><g id="Layer_2" data-name="Layer 2"><g id="Desktop_V_-_Footer" data-name="Desktop V - Footer"><path id="Twitter_Icon" data-name="Twitter Icon" class="cls-1" d="M21.8,2.09a9.27,9.27,0,0,1-2.57.71,4.55,4.55,0,0,0,2-2.47,9,9,0,0,1-2.85,1.08A4.47,4.47,0,0,0,12,1.21a4.52,4.52,0,0,0-1.42,3.26,5.69,5.69,0,0,0,.12,1A12.58,12.58,0,0,1,1.52.82,4.52,4.52,0,0,0,.9,3.06a4.52,4.52,0,0,0,2,3.73,4.47,4.47,0,0,1-2-.56h0a4.47,4.47,0,0,0,3.59,4.38,4.25,4.25,0,0,1-1.18.16,4.78,4.78,0,0,1-.84-.08,4.47,4.47,0,0,0,4.18,3.1,9,9,0,0,1-5.55,1.92H0A12.73,12.73,0,0,0,19.58,5V4.42a9,9,0,0,0,2.23-2.33"/></g></g></svg>