<svg xmlns="http://www.w3.org/2000/svg" viewBox="0 0 28.25 19.77"><defs><style>.cls-1{fill:#f2f2f2;}</style></defs><title>YouTube</title><g id="Layer_2" data-name="Layer 2"><g id="Desktop_V_-_Footer" data-name="Desktop V - Footer"><path id="YouTube_Icon" data-name="YouTube Icon" class="cls-1" d="M28,4A3.94,3.94,0,0,0,24.38.38C22.16.19,18.88,0,14.83,0,10,0,6.27.2,3.89.39A4,4,0,0,0,.27,4C.13,5.51,0,7.53,0,10s.13,4.34.27,5.85a4,4,0,0,0,3.62,3.59c2.38.18,6.06.38,10.94.38,4,0,7.33-.19,9.55-.37A4,4,0,0,0,28,15.81c.14-1.52.27-3.53.27-5.92S28.12,5.49,28,4ZM11,14V5.74l8.19,4.15Z"/></g></g></svg>